HIERARCHY
ROOT mixamorig:Hips
{
	OFFSET 0.000000 201.639420 0.000000
	CHANNELS 6 Xposition Yposition Zposition Xrotation Yrotation Zrotation
	JOINT mixamorig:Spine
	{
		OFFSET 0.006200 19.524994 -2.481800
		CHANNELS 3 Xrotation Yrotation Zrotation
		JOINT mixamorig:Spine1
		{
			OFFSET -0.000900 22.835007 -2.825400
			CHANNELS 3 Xrotation Yrotation Zrotation
			JOINT mixamorig:Spine2
			{
				OFFSET -0.020600 26.552490 -3.193300
				CHANNELS 3 Xrotation Yrotation Zrotation
				JOINT mixamorig:Neck
				{
					OFFSET -0.060000 30.701813 1.352200
					CHANNELS 3 Xrotation Yrotation Zrotation
					JOINT mixamorig:Head
					{
						OFFSET -0.087200 22.547607 3.670900
						CHANNELS 3 Xrotation Yrotation Zrotation
						JOINT mixamorig:HeadTop_End
						{
							OFFSET -0.830600 40.355194 7.893500
							CHANNELS 3 Xrotation Yrotation Zrotation
							End Site
							{
								OFFSET 0.000000 30.592346 0.000000
							}
						}
						JOINT mixamorig:RightEye
						{
							OFFSET -6.302100 18.118591 16.197100
							CHANNELS 3 Xrotation Yrotation Zrotation
							End Site
							{
								OFFSET 0.000000 30.592346 0.000000
							}
						}
						JOINT mixamorig:LeftEye
						{
							OFFSET 6.741500 18.382690 16.401899
							CHANNELS 3 Xrotation Yrotation Zrotation
							End Site
							{
								OFFSET 0.000000 30.592346 0.000000
							}
						}
					}
				}
				JOINT mixamorig:LeftShoulder
				{
					OFFSET 11.924900 18.230499 1.425400
					CHANNELS 3 Xrotation Yrotation Zrotation
					JOINT mixamorig:LeftArm
					{
						OFFSET 25.435989 -0.697632 -5.229300
						CHANNELS 3 Xrotation Yrotation Zrotation
						JOINT mixamorig:LeftForeArm
						{
							OFFSET 54.684776 0.000000 0.000000
							CHANNELS 3 Xrotation Yrotation Zrotation
							JOINT mixamorig:LeftHand
							{
								OFFSET 55.098175 0.000000 0.000000
								CHANNELS 3 Xrotation Yrotation Zrotation
								JOINT mixamorig:LeftHandMiddle1
								{
									OFFSET 23.369751 0.000000 0.000000
									CHANNELS 3 Xrotation Yrotation Zrotation
									JOINT mixamorig:LeftHandMiddle2
									{
										OFFSET 6.378677 0.000000 0.000000
										CHANNELS 3 Xrotation Yrotation Zrotation
										JOINT mixamorig:LeftHandMiddle3
										{
											OFFSET 6.148331 0.000000 0.000000
											CHANNELS 3 Xrotation Yrotation Zrotation
											JOINT mixamorig:LeftHandMiddle4
											{
												OFFSET 6.582504 0.000000 0.000000
												CHANNELS 3 Xrotation Yrotation Zrotation
												End Site
												{
													OFFSET -1.168900 6.395691 1.028606
												}
											}
										}
									}
								}
								JOINT mixamorig:LeftHandThumb1
								{
									OFFSET 7.235672 -3.848206 5.434273
									CHANNELS 3 Xrotation Yrotation Zrotation
									JOINT mixamorig:LeftHandThumb2
									{
										OFFSET 6.568451 -3.792297 3.792300
										CHANNELS 3 Xrotation Yrotation Zrotation
										JOINT mixamorig:LeftHandThumb3
										{
											OFFSET 6.063080 -3.500519 3.500518
											CHANNELS 3 Xrotation Yrotation Zrotation
											JOINT mixamorig:LeftHandThumb4
											{
												OFFSET 4.793182 -2.767334 2.767349
												CHANNELS 3 Xrotation Yrotation Zrotation
												End Site
												{
													OFFSET 0.101639 6.054260 1.275483
												}
											}
										}
									}
								}
								JOINT mixamorig:LeftHandIndex1
								{
									OFFSET 23.101074 -0.309540 4.992809
									CHANNELS 3 Xrotation Yrotation Zrotation
									JOINT mixamorig:LeftHandIndex2
									{
										OFFSET 6.226883 0.000000 0.000000
										CHANNELS 3 Xrotation Yrotation Zrotation
										JOINT mixamorig:LeftHandIndex3
										{
											OFFSET 6.094330 0.000000 0.000000
											CHANNELS 3 Xrotation Yrotation Zrotation
											JOINT mixamorig:LeftHandIndex4
											{
												OFFSET 5.482605 0.000000 0.000000
												CHANNELS 3 Xrotation Yrotation Zrotation
												End Site
												{
													OFFSET -1.427902 5.233032 0.797164
												}
											}
										}
									}
								}
								JOINT mixamorig:LeftHandRing1
								{
									OFFSET 22.299240 0.021149 -3.964172
									CHANNELS 3 Xrotation Yrotation Zrotation
									JOINT mixamorig:LeftHandRing2
									{
										OFFSET 6.321869 0.000000 0.000000
										CHANNELS 3 Xrotation Yrotation Zrotation
										JOINT mixamorig:LeftHandRing3
										{
											OFFSET 5.899796 0.000000 0.000000
											CHANNELS 3 Xrotation Yrotation Zrotation
											JOINT mixamorig:LeftHandRing4
											{
												OFFSET 6.517899 0.000000 0.000000
												CHANNELS 3 Xrotation Yrotation Zrotation
												End Site
												{
													OFFSET -1.637299 6.232208 0.980890
												}
											}
										}
									}
								}
								JOINT mixamorig:LeftHandPinky1
								{
									OFFSET 20.463791 -0.302338 -8.562233
									CHANNELS 3 Xrotation Yrotation Zrotation
									JOINT mixamorig:LeftHandPinky2
									{
										OFFSET 6.908646 0.000000 0.000000
										CHANNELS 3 Xrotation Yrotation Zrotation
										JOINT mixamorig:LeftHandPinky3
										{
											OFFSET 4.622849 0.000000 0.000000
											CHANNELS 3 Xrotation Yrotation Zrotation
											JOINT mixamorig:LeftHandPinky4
											{
												OFFSET 5.216080 0.000000 0.000000
												CHANNELS 3 Xrotation Yrotation Zrotation
												End Site
												{
													OFFSET -0.606308 5.116241 0.814926
												}
											}
										}
									}
								}
							}
						}
					}
				}
				JOINT mixamorig:RightShoulder
				{
					OFFSET -12.001300 18.284088 1.348900
					CHANNELS 3 Xrotation Yrotation Zrotation
					JOINT mixamorig:RightArm
					{
						OFFSET -25.308500 -0.751312 -5.164599
						CHANNELS 3 Xrotation Yrotation Zrotation
						JOINT mixamorig:RightForeArm
						{
							OFFSET -54.684429 0.000000 0.000000
							CHANNELS 3 Xrotation Yrotation Zrotation
							JOINT mixamorig:RightHand
							{
								OFFSET -55.150291 0.000000 0.000000
								CHANNELS 3 Xrotation Yrotation Zrotation
								JOINT mixamorig:RightHandMiddle1
								{
									OFFSET -23.317566 0.000000 0.000000
									CHANNELS 3 Xrotation Yrotation Zrotation
									JOINT mixamorig:RightHandMiddle2
									{
										OFFSET -6.378403 0.000000 0.000000
										CHANNELS 3 Xrotation Yrotation Zrotation
										JOINT mixamorig:RightHandMiddle3
										{
											OFFSET -6.148193 0.000000 0.000000
											CHANNELS 3 Xrotation Yrotation Zrotation
											JOINT mixamorig:RightHandMiddle4
											{
												OFFSET -6.583389 0.000000 0.000000
												CHANNELS 3 Xrotation Yrotation Zrotation
												End Site
												{
													OFFSET 1.171692 6.395905 1.029786
												}
											}
										}
									}
								}
								JOINT mixamorig:RightHandThumb1
								{
									OFFSET -7.190521 -3.860474 5.435846
									CHANNELS 3 Xrotation Yrotation Zrotation
									JOINT mixamorig:RightHandThumb2
									{
										OFFSET -6.567429 -3.791718 3.791708
										CHANNELS 3 Xrotation Yrotation Zrotation
										JOINT mixamorig:RightHandThumb3
										{
											OFFSET -6.062469 -3.500153 3.500166
											CHANNELS 3 Xrotation Yrotation Zrotation
											JOINT mixamorig:RightHandThumb4
											{
												OFFSET -4.792618 -2.767029 2.767022
												CHANNELS 3 Xrotation Yrotation Zrotation
												End Site
												{
													OFFSET -0.100327 6.053253 1.276754
												}
											}
										}
									}
								}
								JOINT mixamorig:RightHandIndex1
								{
									OFFSET -23.048981 -0.310791 4.992554
									CHANNELS 3 Xrotation Yrotation Zrotation
									JOINT mixamorig:RightHandIndex2
									{
										OFFSET -6.227539 0.000000 0.000000
										CHANNELS 3 Xrotation Yrotation Zrotation
										JOINT mixamorig:RightHandIndex3
										{
											OFFSET -6.095047 0.000000 0.000000
											CHANNELS 3 Xrotation Yrotation Zrotation
											JOINT mixamorig:RightHandIndex4
											{
												OFFSET -5.484772 0.000000 0.000000
												CHANNELS 3 Xrotation Yrotation Zrotation
												End Site
												{
													OFFSET 1.420593 5.237305 0.797056
												}
											}
										}
									}
								}
								JOINT mixamorig:RightHandRing1
								{
									OFFSET -22.246323 0.020569 -3.963762
									CHANNELS 3 Xrotation Yrotation Zrotation
									JOINT mixamorig:RightHandRing2
									{
										OFFSET -6.322128 0.000000 0.000000
										CHANNELS 3 Xrotation Yrotation Zrotation
										JOINT mixamorig:RightHandRing3
										{
											OFFSET -5.900024 0.000000 0.000000
											CHANNELS 3 Xrotation Yrotation Zrotation
											JOINT mixamorig:RightHandRing4
											{
												OFFSET -6.518356 0.000000 0.000000
												CHANNELS 3 Xrotation Yrotation Zrotation
												End Site
												{
													OFFSET 1.636398 6.232697 0.982186
												}
											}
										}
									}
								}
								JOINT mixamorig:RightHandPinky1
								{
									OFFSET -20.411011 -0.303314 -8.561701
									CHANNELS 3 Xrotation Yrotation Zrotation
									JOINT mixamorig:RightHandPinky2
									{
										OFFSET -6.907349 0.000000 0.000000
										CHANNELS 3 Xrotation Yrotation Zrotation
										JOINT mixamorig:RightHandPinky3
										{
											OFFSET -4.623840 0.000000 0.000000
											CHANNELS 3 Xrotation Yrotation Zrotation
											JOINT mixamorig:RightHandPinky4
											{
												OFFSET -5.218353 0.000000 0.000000
												CHANNELS 3 Xrotation Yrotation Zrotation
												End Site
												{
													OFFSET 0.602097 5.118835 0.816273
												}
											}
										}
									}
								}
							}
						}
					}
				}
			}
		}
	}
	JOINT mixamorig:LeftUpLeg
	{
		OFFSET 18.168400 -13.561905 -0.039000
		CHANNELS 3 Xrotation Yrotation Zrotation
		JOINT mixamorig:LeftLeg
		{
			OFFSET 0.577358 -80.825211 -3.695000
			CHANNELS 3 Xrotation Yrotation Zrotation
			JOINT mixamorig:LeftFoot
			{
				OFFSET -0.577356 -83.370262 -6.520700
				CHANNELS 3 Xrotation Yrotation Zrotation
				JOINT mixamorig:LeftToeBase
				{
					OFFSET 0.750401 -20.798306 25.135401
					CHANNELS 3 Xrotation Yrotation Zrotation
					JOINT mixamorig:LeftToe_End
					{
						OFFSET -0.000500 0.001200 19.917799
						CHANNELS 3 Xrotation Yrotation Zrotation
						End Site
						{
							OFFSET 0.000000 19.917805 0.000000
						}
					}
				}
			}
		}
	}
	JOINT mixamorig:RightUpLeg
	{
		OFFSET -18.162500 -13.585098 -0.041000
		CHANNELS 3 Xrotation Yrotation Zrotation
		JOINT mixamorig:RightLeg
		{
			OFFSET -0.595024 -80.945297 -3.631900
			CHANNELS 3 Xrotation Yrotation Zrotation
			JOINT mixamorig:RightFoot
			{
				OFFSET 0.595024 -83.218193 -6.561200
				CHANNELS 3 Xrotation Yrotation Zrotation
				JOINT mixamorig:RightToeBase
				{
					OFFSET -0.753601 -20.807106 25.115000
					CHANNELS 3 Xrotation Yrotation Zrotation
					JOINT mixamorig:RightToe_End
					{
						OFFSET 0.000299 0.001700 19.918200
						CHANNELS 3 Xrotation Yrotation Zrotation
						End Site
						{
							OFFSET 0.000000 19.918203 0.000000
						}
					}
				}
			}
		}
	}
}
MOTION
Frames: 4
Frame Time: 0.033333
0.491022 197.515060 82.399399 13.265774 -0.938489 -0.765271 7.018988 0.384490 -1.005330 -6.730693 -0.256303 -0.109745 -6.731463 -0.207672 -0.039602 4.702174 -1.333810 1.266539 -11.275467 -4.385030 -4.366782 0.000000 0.000000 -0.000000 0.000000 0.000000 -0.000000 0.000000 0.000000 -0.000000 0.547623 -9.099740 -12.048208 21.330575 -1.889798 -64.046213 0.000003 -34.705076 0.000010 7.426795 4.661460 19.844210 2.102096 8.091880 -88.265510 4.578597 5.711489 -77.418036 1.771304 4.197642 -45.741910 -0.000002 0.000000 -0.000000 19.600058 -7.274836 0.555284 6.645757 27.816794 -11.974659 74.283819 59.759647 -37.811155 0.000002 0.000000 0.000002 5.469506 3.195063 -89.732020 4.585127 5.712926 -77.483592 3.903866 5.518603 -70.530282 -0.000002 -0.000000 0.000002 -0.464433 8.490017 -92.435313 4.512201 5.696347 -76.749845 2.135147 4.522772 -50.525016 -0.000001 -0.000001 -0.000000 -4.147243 10.135421 -100.136249 5.264239 5.821663 -84.233943 3.784736 5.475250 -69.286634 -0.000001 0.000000 0.000003 3.507354 -19.645236 2.219146 4.323066 30.742699 57.926841 0.000295 100.744218 -0.000307 -39.350250 25.217345 20.219267 0.873385 -6.773745 87.492941 3.645470 -4.546170 77.439647 1.411831 -3.342026 45.794154 0.000003 -0.000003 0.000002 18.600946 8.959448 0.055322 6.692332 -29.476750 11.296308 86.383062 -61.110242 47.590139 0.000000 -0.000001 -0.000004 4.255938 -1.892693 88.959744 3.650260 -4.547221 77.500695 3.108512 -4.392669 70.557739 -0.000002 -0.000000 -0.000001 -1.780076 -7.135353 91.651208 3.592256 -4.534056 76.767829 1.701767 -3.600858 50.579252 -0.000000 -0.000002 -0.000000 -5.664852 -8.770679 99.360818 4.187824 -4.633523 84.209778 3.013530 -4.358069 69.312780 -0.000003 -0.000001 -0.000003 -33.318001 19.377423 13.724509 19.459735 -5.278578 0.907715 -1.663530 -2.821788 -6.173852 -0.187860 0.000002 -0.000001 -0.000000 0.000000 -0.000000 -26.832624 -3.523600 -7.639636 14.402028 9.764763 -1.923842 0.366662 -14.045758 9.367790 -0.048848 -0.000001 0.000001 0.000000 -0.000000 0.000000 
-0.265054 197.527573 81.787079 12.351619 -0.316258 -0.656787 7.008187 0.453579 -0.742685 -6.653132 -0.249775 0.245784 -6.653756 -0.198144 0.304161 5.088719 -1.411293 0.697341 -10.834679 -5.086818 -4.840097 0.000000 0.000000 0.000000 0.000000 0.000000 0.000000 0.000000 0.000000 0.000000 0.545562 -9.657187 -11.909161 20.557339 -5.115849 -64.349903 0.000010 -35.412854 0.000033 5.834540 5.034686 18.092362 2.101624 8.092236 -88.271357 4.579320 5.711644 -77.425331 1.771414 4.197752 -45.743338 -0.000000 0.000001 -0.000000 19.601070 -7.275023 0.553407 6.645326 27.817972 -11.972620 74.310313 59.759572 -37.834453 0.000002 -0.000000 -0.000001 5.468846 3.197032 -89.737464 4.585772 5.713065 -77.490067 3.904435 5.518806 -70.536135 -0.000001 0.000002 -0.000000 -0.464972 8.490923 -92.442970 4.512762 5.696475 -76.755535 2.135351 4.522945 -50.527482 0.000000 -0.000000 -0.000001 -4.148062 10.137433 -100.145531 5.264823 5.821723 -84.239701 3.785109 5.475392 -69.290609 -0.000001 -0.000003 0.000002 4.696056 -19.098722 6.241396 0.484687 26.311543 62.269926 0.000697 86.154961 -0.000681 -30.494093 25.235669 16.793463 0.876134 -6.784274 87.657111 3.653772 -4.548030 77.544668 1.415188 -3.345257 45.851364 0.000001 -0.000000 0.000001 18.661819 9.004883 0.080220 6.684929 -29.484612 11.225760 87.398821 -61.100154 48.439206 -0.000003 -0.000005 0.000001 4.264719 -1.891690 89.105787 3.659140 -4.549166 77.612655 3.117252 -4.395722 70.671674 -0.000000 0.000000 -0.000003 -1.792048 -7.155592 91.822160 3.602094 -4.536350 76.892234 1.706005 -3.604328 50.646771 0.000000 -0.000002 0.000005 -5.687618 -8.792275 99.530691 4.200782 -4.634811 84.370219 3.020975 -4.360850 69.410595 0.000000 0.000001 0.000000 -32.448781 19.781527 13.720979 18.843780 -5.226979 0.878951 -1.076116 -3.838308 -6.298123 -0.187416 0.000011 -0.000000 -0.000000 -0.000001 -0.000000 -26.302854 -2.307420 -7.449188 15.538346 9.774359 -1.924548 -0.144924 -15.820718 9.086984 -0.050097 -0.000006 0.000000 0.000000 0.000001 0.000000 
-1.027507 197.674088 81.268524 11.594927 0.384820 -0.572204 6.976630 0.558171 -0.504527 -6.638450 -0.139305 0.546073 -6.640013 -0.083213 0.595318 5.493374 -1.548053 0.259783 -10.240044 -6.064853 -5.079598 -0.000000 -0.000000 -0.000000 -0.000000 -0.000000 -0.000000 -0.000000 -0.000000 -0.000000 0.527871 -11.318176 -11.801094 19.837924 -7.845312 -64.769427 -0.000000 -36.224233 -0.000001 4.830501 5.415794 17.306825 2.101094 8.092641 -88.277927 4.580133 5.711827 -77.433438 1.771528 4.197872 -45.744970 -0.000001 0.000001 -0.000000 19.602511 -7.274460 0.551638 6.644907 27.819296 -11.970412 74.340032 59.757708 -37.856091 0.000004 0.000000 -0.000001 5.468104 3.198654 -89.743618 4.586486 5.713222 -77.497307 3.905070 5.519031 -70.542733 0.000001 0.000003 -0.000003 -0.465551 8.491951 -92.451576 4.513401 5.696627 -76.761921 2.135563 4.523122 -50.530241 0.000000 -0.000000 -0.000000 -4.148963 10.139698 -100.155934 5.265460 5.821780 -84.246053 3.785549 5.475561 -69.295192 -0.000003 0.000002 -0.000000 5.775262 -17.639027 10.353567 -4.063879 18.500213 65.094046 0.000006 70.242150 -0.000007 -14.294311 25.411160 12.430310 0.875116 -6.773920 87.494785 3.645741 -4.546245 77.443116 1.411997 -3.342146 45.796750 0.000002 -0.000001 0.000004 18.602128 8.959580 0.057513 6.699448 -29.474701 11.298342 86.301455 -61.098112 47.527602 -0.000002 0.000001 0.000000 4.255192 -1.883165 88.963016 3.650416 -4.547269 77.502669 3.108755 -4.392731 70.560704 0.000002 0.000001 -0.000004 -1.779354 -7.135953 91.656597 3.592339 -4.534054 76.768724 1.701902 -3.600972 50.581663 0.000000 0.000000 0.000000 -5.665714 -8.771461 99.364390 4.188089 -4.633532 84.213104 3.013812 -4.358192 69.316550 -0.000001 -0.000000 0.000001 -31.429843 20.208018 13.610040 17.649388 -5.169850 0.848931 -0.205519 -4.911112 -6.438884 -0.186958 -0.000002 -0.000002 -0.000000 -0.000000 -0.000000 -25.563252 -1.427706 -7.257349 15.939730 9.782141 -1.927009 -0.321054 -17.389662 8.836328 -0.051445 0.000002 0.000001 -0.000000 0.000000 -0.000000 
-1.772465 197.917618 80.804001 10.997848 1.084478 -0.529608 6.940268 0.668887 -0.297778 -6.670418 0.009135 0.809273 -6.673080 0.069249 0.853820 5.826996 -1.706546 -0.021024 -9.565040 -7.053448 -5.255869 0.000000 0.000000 0.000001 0.000000 0.000000 0.000001 0.000000 0.000000 0.000001 0.516357 -13.301625 -11.554204 18.994763 -10.196936 -65.416492 0.000004 -36.975916 0.000004 4.204066 5.891195 17.451987 2.101539 8.091754 -88.263762 4.578709 5.711514 -77.419156 1.771320 4.197659 -45.742040 -0.000002 0.000001 -0.000000 19.601485 -7.270018 0.557202 6.645744 27.816567 -11.974139 74.283990 59.756615 -37.804530 -0.000001 0.000000 -0.000001 5.466276 3.201141 -89.731870 4.585102 5.712917 -77.483414 3.903855 5.518598 -70.530186 -0.000002 -0.000001 0.000000 -0.463692 8.490108 -92.436447 4.512068 5.696311 -76.748527 2.135167 4.522784 -50.525064 0.000001 -0.000000 -0.000000 -4.146211 10.135903 -100.139610 5.263886 5.821620 -84.230467 3.784735 5.475247 -69.286703 -0.000002 0.000002 -0.000003 6.422372 -15.390709 13.773328 -7.343799 10.689835 67.020412 0.000006 54.150447 -0.000013 5.615984 25.338265 2.713569 0.859582 -6.683587 86.063177 3.574473 -4.529846 76.542385 1.383073 -3.313813 45.298460 0.000002 0.000001 0.000002 18.077223 8.568535 -0.153931 6.791672 -29.395416 11.917574 77.711714 -60.822705 40.379378 0.000001 0.000002 0.000000 4.176669 -1.846125 87.696501 3.573874 -4.529681 76.535234 3.033365 -4.365486 69.573379 -0.000001 0.000001 -0.000002 -1.670208 -6.966206 90.182765 3.506586 -4.513110 75.681453 1.665305 -3.570636 49.996531 -0.000001 -0.000002 0.000001 -5.453880 -8.742146 97.862609 4.078487 -4.621145 82.854518 2.949334 -4.333352 68.465700 -0.000001 0.000000 -0.000001 -30.319865 20.623176 13.431155 15.983693 -5.123675 0.816796 0.894335 -5.934819 -6.586082 -0.186499 0.000000 0.000000 0.000000 0.000000 0.000000 -24.701463 -0.714262 -7.025675 15.755061 9.778335 -1.932766 -0.199961 -18.833302 8.641515 -0.052853 0.000005 0.000000 -0.000000 -0.000001 -0.000000 
